<svg width="24" height="30" viewBox="0 0 24 30" fill="none" xmlns="http://www.w3.org/2000/svg">
<path d="M0 29.6144V1.54242H10.2745C13.9548 1.54242 16.7509 2.20437 18.6631 3.52828C20.5883 4.85219 21.551 6.77378 21.551 9.29306C21.551 10.7455 21.2104 11.9859 20.5294 13.0141C19.8484 14.0424 18.8465 14.8008 17.5237 15.2892C19.0167 15.6748 20.1627 16.3946 20.9616 17.4486C21.7605 18.5026 22.16 19.7879 22.16 21.3046C22.16 24.0553 21.2694 26.1247 19.4882 27.5129C17.7201 28.8882 15.0942 29.5887 11.6104 29.6144H0ZM6.89552 17.6799V24.4087H11.414C12.6582 24.4087 13.6142 24.1324 14.2822 23.5797C14.9501 23.0141 15.2841 22.2236 15.2841 21.2082C15.2841 18.8689 14.0988 17.6928 11.7283 17.6799H6.89552ZM6.89552 13.2455H10.4906C11.9968 13.2326 13.0707 12.9627 13.7125 12.4357C14.3542 11.9087 14.6751 11.1311 14.6751 10.1028C14.6751 8.92031 14.328 8.07198 13.6339 7.55784C12.9397 7.03085 11.82 6.76735 10.2745 6.76735H6.89552V13.2455Z" fill="#0080DD"/>
</svg>