<svg width="138" height="30" viewBox="0 0 138 30" fill="none" xmlns="http://www.w3.org/2000/svg">
<path d="M0 29.6144V1.54242H10.2745C13.9548 1.54242 16.7509 2.20437 18.6631 3.52828C20.5883 4.85219 21.551 6.77378 21.551 9.29306C21.551 10.7455 21.2104 11.9859 20.5294 13.0141C19.8484 14.0424 18.8465 14.8008 17.5237 15.2892C19.0167 15.6748 20.1627 16.3946 20.9616 17.4486C21.7605 18.5026 22.16 19.7879 22.16 21.3046C22.16 24.0553 21.2694 26.1247 19.4882 27.5129C17.7201 28.8882 15.0942 29.5887 11.6104 29.6144H0ZM6.89552 17.6799V24.4087H11.414C12.6582 24.4087 13.6142 24.1324 14.2822 23.5797C14.9501 23.0141 15.2841 22.2236 15.2841 21.2082C15.2841 18.8689 14.0988 17.6928 11.7283 17.6799H6.89552ZM6.89552 13.2455H10.4906C11.9968 13.2326 13.0707 12.9627 13.7125 12.4357C14.3542 11.9087 14.6751 11.1311 14.6751 10.1028C14.6751 8.92031 14.328 8.07198 13.6339 7.55784C12.9397 7.03085 11.82 6.76735 10.2745 6.76735H6.89552V13.2455Z" fill="white"/>
<path d="M31.0412 29.6144H24.4011V0H31.0412V29.6144Z" fill="white"/>
<path d="M43.8123 30C40.5512 30 37.9121 29.0488 35.8952 27.1465C33.8783 25.2314 32.8698 22.7442 32.8698 19.6851V19.1452C32.8698 17.0116 33.2693 15.1285 34.0682 13.4961C34.8802 11.8638 36.0589 10.6041 37.6044 9.71722C39.1498 8.81748 40.9834 8.36761 43.1051 8.36761C46.0912 8.36761 48.4486 9.28021 50.1774 11.1054C51.9062 12.9177 52.7706 15.4499 52.7706 18.7018V21.2275H39.6082C39.8439 22.3972 40.3613 23.3162 41.1602 23.9846C41.9591 24.653 42.9937 24.9871 44.2641 24.9871C46.3597 24.9871 47.9968 24.2674 49.1755 22.8278L52.2009 26.3368C51.3758 27.455 50.2036 28.3483 48.6844 29.0167C47.1782 29.6722 45.5542 30 43.8123 30ZM43.0658 13.3805C41.1274 13.3805 39.9749 14.6401 39.6082 17.1594H46.2876V16.6581C46.3138 15.617 46.0453 14.8136 45.4822 14.2481C44.919 13.6697 44.1135 13.3805 43.0658 13.3805Z" fill="white"/>
<path d="M66.5043 27.3586C65.1029 29.1195 63.2104 30 60.8268 30C58.4955 30 56.7274 29.338 55.5225 28.0141C54.3307 26.6774 53.7348 24.7622 53.7348 22.2686V8.75321H60.3553V22.3072C60.3553 24.0938 61.2393 24.9871 63.0074 24.9871C64.5266 24.9871 65.6071 24.4537 66.2489 23.3869V8.75321H72.9087V29.6144H66.7007L66.5043 27.3586Z" fill="white"/>
<path d="M82.6543 3.56684V8.75321H86.1512V13.2648H82.6543V22.8085C82.6543 23.5925 82.7984 24.1388 83.0865 24.4473C83.3747 24.7558 83.9444 24.91 84.7957 24.91C85.4505 24.91 86.0006 24.8715 86.4459 24.7943V29.4409C85.2541 29.8136 84.0099 30 82.7133 30C80.4344 30 78.7514 29.473 77.6644 28.419C76.5774 27.365 76.0338 25.7648 76.0338 23.6183V13.2648H69.97V8.75321H76.0338V3.56684H82.6543Z" fill="white"/>
<path d="M97.4489 30C94.1877 30 91.5487 29.0488 89.5318 27.1465C87.5149 25.2314 86.5064 22.7442 86.5064 19.6851V19.1452C86.5064 17.0116 86.9059 15.1285 87.7048 13.4961C88.5168 11.8638 89.6955 10.6041 91.2409 9.71722C92.7864 8.81748 94.6199 8.36761 96.7416 8.36761C99.7277 8.36761 102.085 9.28021 103.814 11.1054C105.543 12.9177 106.407 15.4499 106.407 18.7018V21.2275H93.2448C93.4805 22.3972 93.9978 23.3162 94.7967 23.9846C95.5956 24.653 96.6303 24.9871 97.9007 24.9871C99.9962 24.9871 101.633 24.2674 102.812 22.8278L105.837 26.3368C105.012 27.455 103.84 28.3483 102.321 29.0167C100.815 29.6722 99.1908 30 97.4489 30ZM96.7023 13.3805C94.764 13.3805 93.6115 14.6401 93.2448 17.1594H99.9242V16.6581C99.9504 15.617 99.6819 14.8136 99.1187 14.2481C98.5555 13.6697 97.7501 13.3805 96.7023 13.3805Z" fill="white"/>
<path d="M118.608 23.7532C118.608 23.2005 118.314 22.7571 117.724 22.4229C117.135 22.0887 116.015 21.7416 114.365 21.3817C112.715 21.0219 111.353 20.5527 110.279 19.9743C109.205 19.383 108.386 18.6697 107.823 17.8342C107.26 16.9987 106.978 16.0411 106.978 14.9614C106.978 13.0463 107.784 11.4717 109.395 10.2378C111.006 8.991 113.114 8.36761 115.721 8.36761C118.523 8.36761 120.776 8.991 122.479 10.2378C124.181 11.4846 125.033 13.1234 125.033 15.1542H118.392C118.392 13.4833 117.495 12.6478 115.701 12.6478C115.007 12.6478 114.424 12.8406 113.953 13.2262C113.481 13.599 113.245 14.0681 113.245 14.6337C113.245 15.2121 113.533 15.6812 114.11 16.0411C114.686 16.401 115.603 16.6967 116.86 16.928C118.13 17.1594 119.244 17.4357 120.2 17.7571C123.395 18.8368 124.993 20.7712 124.993 23.5604C124.993 25.4627 124.129 27.0116 122.4 28.2069C120.684 29.4023 118.458 30 115.721 30C113.9 30 112.276 29.6787 110.849 29.036C109.421 28.3933 108.308 27.5193 107.509 26.4139C106.71 25.3085 106.31 24.1452 106.31 22.9242H112.499C112.525 23.8882 112.852 24.5951 113.481 25.045C114.11 25.482 114.915 25.7005 115.897 25.7005C116.801 25.7005 117.476 25.5206 117.921 25.1607C118.379 24.8008 118.608 24.3316 118.608 23.7532Z" fill="white"/>
<path d="M134.208 3.56684V8.75321H137.705V13.2648H134.208V22.8085C134.208 23.5925 134.353 24.1388 134.641 24.4473C134.929 24.7558 135.499 24.91 136.35 24.91C137.005 24.91 137.555 24.8715 138 24.7943V29.4409C136.808 29.8136 135.564 30 134.267 30C131.989 30 130.306 29.473 129.219 28.419C128.132 27.365 127.588 25.7648 127.588 23.6183V13.2648H124.877V8.75321H127.588V3.56684H134.208Z" fill="white"/>
</svg>
