<?xml version="1.0" encoding="UTF-8"?>
<svg xmlns="http://www.w3.org/2000/svg" xmlns:xlink="http://www.w3.org/1999/xlink" width="28pt" height="28pt" viewBox="0 0 28 28" version="1.1">
<g id="surface13151">
<path style="fill-rule:nonzero;fill:rgb(92.54902%,93.72549%,94.509804%);fill-opacity:1;stroke-width:2;stroke-linecap:butt;stroke-linejoin:round;stroke:rgb(100%,100%,100%);stroke-opacity:1;stroke-miterlimit:10;" d="M 7.17139 35.825311 L 164.82861 35.825311 L 164.82861 132.583851 L 7.17139 132.583851 Z M 7.17139 35.825311 " transform="matrix(0.161,0,0,0.161,0.154,0.154)"/>
<path style="fill-rule:nonzero;fill:rgb(95.686275%,26.27451%,21.176471%);fill-opacity:1;stroke-width:2;stroke-linecap:butt;stroke-linejoin:round;stroke:rgb(100%,100%,100%);stroke-opacity:1;stroke-miterlimit:10;" d="M 7.17139 35.825311 L 164.82861 35.825311 L 164.82861 46.573564 L 7.17139 46.573564 Z M 7.17139 57.321817 L 164.82861 57.321817 L 164.82861 68.094332 L 7.17139 68.094332 Z M 7.17139 78.842585 L 164.82861 78.842585 L 164.82861 89.590839 L 7.17139 89.590839 Z M 7.17139 100.339092 L 164.82861 100.339092 L 164.82861 111.087345 L 7.17139 111.087345 Z M 7.17139 121.835598 L 164.82861 121.835598 L 164.82861 132.583851 L 7.17139 132.583851 Z M 7.17139 121.835598 " transform="matrix(0.161,0,0,0.161,0.154,0.154)"/>
<path style="fill-rule:nonzero;fill:rgb(24.705882%,31.764706%,70.980392%);fill-opacity:1;stroke-width:2;stroke-linecap:butt;stroke-linejoin:round;stroke:rgb(100%,100%,100%);stroke-opacity:1;stroke-miterlimit:10;" d="M 7.17139 35.825311 L 82.409161 35.825311 L 82.409161 89.590839 L 7.17139 89.590839 Z M 7.17139 35.825311 " transform="matrix(0.161,0,0,0.161,0.154,0.154)"/>
<path style="fill-rule:nonzero;fill:rgb(100%,100%,100%);fill-opacity:1;stroke-width:2;stroke-linecap:butt;stroke-linejoin:round;stroke:rgb(100%,100%,100%);stroke-opacity:1;stroke-miterlimit:10;" d="M 15.226514 43.006988 L 16.876359 46.549301 L 20.612772 47.107337 L 17.919643 49.873253 L 18.550466 53.755241 L 15.226514 51.911297 L 11.902562 53.755241 L 12.533385 49.873253 L 9.864519 47.107337 L 13.576669 46.549301 Z M 29.565606 43.006988 L 31.21545 46.549301 L 34.927601 47.107337 L 32.258734 49.873253 L 32.889557 53.755241 L 29.565606 51.911297 L 26.241654 53.755241 L 26.872477 49.873253 L 24.179348 47.107337 L 27.891498 46.549301 Z M 43.904697 43.006988 L 45.554542 46.549301 L 49.266693 47.107337 L 46.573564 49.873253 L 47.228649 53.755241 L 43.904697 51.911297 L 40.580745 53.755241 L 41.211568 49.873253 L 38.518439 47.107337 L 42.23059 46.549301 Z M 58.219526 43.006988 L 59.893634 46.549301 L 63.605784 47.107337 L 60.912655 49.873253 L 61.543478 53.755241 L 58.219526 51.911297 L 54.895575 53.755241 L 55.55066 49.873253 L 52.857531 47.107337 L 56.569682 46.549301 Z M 71.660908 43.006988 L 73.335016 46.549301 L 77.047166 47.107337 L 74.354037 49.873253 L 74.98486 53.755241 L 71.660908 51.911297 L 68.336957 53.755241 L 68.96778 49.873253 L 66.298913 47.107337 L 70.011064 46.549301 Z M 15.226514 71.660908 L 16.876359 75.203222 L 20.612772 75.761258 L 17.919643 78.527174 L 18.550466 82.409161 L 15.226514 80.58948 L 11.902562 82.409161 L 12.533385 78.527174 L 9.864519 75.761258 L 13.576669 75.203222 Z M 29.565606 71.660908 L 31.21545 75.203222 L 34.927601 75.761258 L 32.258734 78.527174 L 32.889557 82.409161 L 29.565606 80.58948 L 26.241654 82.409161 L 26.872477 78.527174 L 24.179348 75.761258 L 27.891498 75.203222 Z M 43.904697 71.660908 L 45.554542 75.203222 L 49.266693 75.761258 L 46.573564 78.527174 L 47.228649 82.409161 L 43.904697 80.58948 L 40.580745 82.409161 L 41.211568 78.527174 L 38.518439 75.761258 L 42.23059 75.203222 Z M 58.219526 71.660908 L 59.893634 75.203222 L 63.605784 75.761258 L 60.912655 78.527174 L 61.543478 82.409161 L 58.219526 80.58948 L 54.895575 82.409161 L 55.55066 78.527174 L 52.857531 75.761258 L 56.569682 75.203222 Z M 71.660908 71.660908 L 73.335016 75.203222 L 77.047166 75.761258 L 74.354037 78.527174 L 74.98486 82.409161 L 71.660908 80.58948 L 68.336957 82.409161 L 68.96778 78.527174 L 66.298913 75.761258 L 70.011064 75.203222 Z M 18.817352 57.321817 L 20.467197 60.86413 L 24.179348 61.446429 L 21.510481 64.188082 L 22.141304 68.094332 L 18.817352 66.250388 L 15.493401 68.094332 L 16.124224 64.188082 L 13.431095 61.446429 L 17.143245 60.86413 Z M 33.156444 57.321817 L 34.806289 60.86413 L 38.518439 61.446429 L 35.825311 64.188082 L 36.480396 68.094332 L 33.156444 66.250388 L 29.832492 68.094332 L 30.463315 64.188082 L 27.770186 61.446429 L 31.482337 60.86413 Z M 47.471273 57.321817 L 49.14538 60.86413 L 52.857531 61.446429 L 50.164402 64.188082 L 50.795225 68.094332 L 47.471273 66.250388 L 44.147321 68.094332 L 44.802407 64.188082 L 42.109278 61.446429 L 45.821429 60.86413 Z M 61.810365 57.321817 L 63.46021 60.86413 L 67.196623 61.446429 L 64.503494 64.188082 L 65.134317 68.094332 L 61.810365 66.250388 L 58.486413 68.094332 L 59.117236 64.188082 L 56.44837 61.446429 L 60.16052 60.86413 Z M 75.251747 57.321817 L 76.901592 60.86413 L 80.613742 61.446429 L 77.944876 64.188082 L 78.575699 68.094332 L 75.251747 66.250388 L 71.927795 68.094332 L 72.558618 64.188082 L 69.865489 61.446429 L 73.601902 60.86413 Z M 75.251747 57.321817 " transform="matrix(0.161,0,0,0.161,0.154,0.154)"/>
<path style=" stroke:none;fill-rule:nonzero;fill:rgb(92.54902%,93.72549%,94.509804%);fill-opacity:1;" d="M 1.308594 5.921875 L 26.691406 5.921875 L 26.691406 21.5 L 1.308594 21.5 Z M 1.308594 5.921875 "/>
<path style=" stroke:none;fill-rule:nonzero;fill:rgb(95.686275%,26.27451%,21.176471%);fill-opacity:1;" d="M 1.308594 5.921875 L 26.691406 5.921875 L 26.691406 7.652344 L 1.308594 7.652344 Z M 1.308594 9.382812 L 26.691406 9.382812 L 26.691406 11.117188 L 1.308594 11.117188 Z M 1.308594 12.847656 L 26.691406 12.847656 L 26.691406 14.578125 L 1.308594 14.578125 Z M 1.308594 16.308594 L 26.691406 16.308594 L 26.691406 18.039062 L 1.308594 18.039062 Z M 1.308594 19.769531 L 26.691406 19.769531 L 26.691406 21.5 L 1.308594 21.5 Z M 1.308594 19.769531 "/>
<path style=" stroke:none;fill-rule:nonzero;fill:rgb(24.705882%,31.764706%,70.980392%);fill-opacity:1;" d="M 1.308594 5.921875 L 13.421875 5.921875 L 13.421875 14.578125 L 1.308594 14.578125 Z M 1.308594 5.921875 "/>
<path style=" stroke:none;fill-rule:nonzero;fill:rgb(100%,100%,100%);fill-opacity:1;" d="M 2.605469 7.078125 L 2.871094 7.648438 L 3.472656 7.738281 L 3.039062 8.183594 L 3.140625 8.808594 L 2.605469 8.511719 L 2.070312 8.808594 L 2.171875 8.183594 L 1.742188 7.738281 L 2.339844 7.648438 Z M 4.914062 7.078125 L 5.179688 7.648438 L 5.777344 7.738281 L 5.347656 8.183594 L 5.449219 8.808594 L 4.914062 8.511719 L 4.378906 8.808594 L 4.480469 8.183594 L 4.046875 7.738281 L 4.644531 7.648438 Z M 7.222656 7.078125 L 7.488281 7.648438 L 8.085938 7.738281 L 7.652344 8.183594 L 7.757812 8.808594 L 7.222656 8.511719 L 6.6875 8.808594 L 6.789062 8.183594 L 6.355469 7.738281 L 6.953125 7.648438 Z M 9.527344 7.078125 L 9.796875 7.648438 L 10.394531 7.738281 L 9.960938 8.183594 L 10.0625 8.808594 L 9.527344 8.511719 L 8.992188 8.808594 L 9.097656 8.183594 L 8.664062 7.738281 L 9.261719 7.648438 Z M 11.691406 7.078125 L 11.960938 7.648438 L 12.558594 7.738281 L 12.125 8.183594 L 12.226562 8.808594 L 11.691406 8.511719 L 11.15625 8.808594 L 11.257812 8.183594 L 10.828125 7.738281 L 11.425781 7.648438 Z M 2.605469 11.691406 L 2.871094 12.261719 L 3.472656 12.351562 L 3.039062 12.796875 L 3.140625 13.421875 L 2.605469 13.128906 L 2.070312 13.421875 L 2.171875 12.796875 L 1.742188 12.351562 L 2.339844 12.261719 Z M 4.914062 11.691406 L 5.179688 12.261719 L 5.777344 12.351562 L 5.347656 12.796875 L 5.449219 13.421875 L 4.914062 13.128906 L 4.378906 13.421875 L 4.480469 12.796875 L 4.046875 12.351562 L 4.644531 12.261719 Z M 7.222656 11.691406 L 7.488281 12.261719 L 8.085938 12.351562 L 7.652344 12.796875 L 7.757812 13.421875 L 7.222656 13.128906 L 6.6875 13.421875 L 6.789062 12.796875 L 6.355469 12.351562 L 6.953125 12.261719 Z M 9.527344 11.691406 L 9.796875 12.261719 L 10.394531 12.351562 L 9.960938 12.796875 L 10.0625 13.421875 L 9.527344 13.128906 L 8.992188 13.421875 L 9.097656 12.796875 L 8.664062 12.351562 L 9.261719 12.261719 Z M 11.691406 11.691406 L 11.960938 12.261719 L 12.558594 12.351562 L 12.125 12.796875 L 12.226562 13.421875 L 11.691406 13.128906 L 11.15625 13.421875 L 11.257812 12.796875 L 10.828125 12.351562 L 11.425781 12.261719 Z M 3.183594 9.382812 L 3.449219 9.953125 L 4.046875 10.046875 L 3.617188 10.488281 L 3.71875 11.117188 L 3.183594 10.820312 L 2.648438 11.117188 L 2.75 10.488281 L 2.316406 10.046875 L 2.914062 9.953125 Z M 5.492188 9.382812 L 5.757812 9.953125 L 6.355469 10.046875 L 5.921875 10.488281 L 6.027344 11.117188 L 5.492188 10.820312 L 4.957031 11.117188 L 5.058594 10.488281 L 4.625 10.046875 L 5.222656 9.953125 Z M 7.796875 9.382812 L 8.066406 9.953125 L 8.664062 10.046875 L 8.230469 10.488281 L 8.332031 11.117188 L 7.796875 10.820312 L 7.261719 11.117188 L 7.367188 10.488281 L 6.933594 10.046875 L 7.53125 9.953125 Z M 10.105469 9.382812 L 10.371094 9.953125 L 10.972656 10.046875 L 10.539062 10.488281 L 10.640625 11.117188 L 10.105469 10.820312 L 9.570312 11.117188 L 9.671875 10.488281 L 9.242188 10.046875 L 9.839844 9.953125 Z M 12.269531 9.382812 L 12.535156 9.953125 L 13.132812 10.046875 L 12.703125 10.488281 L 12.804688 11.117188 L 12.269531 10.820312 L 11.734375 11.117188 L 11.835938 10.488281 L 11.402344 10.046875 L 12.003906 9.953125 Z M 12.269531 9.382812 "/>
</g>
</svg>
